HIERARCHY
ROOT Hips
{
	OFFSET -3.958830 18.904000 13.208200
	CHANNELS 6 Xposition Yposition Zposition Zrotation Yrotation Xrotation 
	JOINT LHipJoint
	{
		OFFSET 0.000000 0.000000 0.000000
		CHANNELS 3 Zrotation Yrotation Xrotation
		JOINT LeftUpLeg
		{
			OFFSET 1.800000 -1.400000 0.085000
			CHANNELS 3 Zrotation Yrotation Xrotation
			JOINT LeftLeg
			{
				OFFSET 2.215000 -6.000000 0.000000
				CHANNELS 3 Zrotation Yrotation Xrotation
				JOINT LeftFoot
				{
					OFFSET 2.500000 -6.900000 0.000000
					CHANNELS 3 Zrotation Yrotation Xrotation
					JOINT LeftToeBase
					{
						OFFSET 0.200000 -0.500000 1.950000
						CHANNELS 3 Zrotation Yrotation Xrotation
						End Site
						{
							OFFSET 0.000000 0.000000 0.000000
						}
					}
				}
			}
		}
	}
	JOINT RHipJoint
	{
		OFFSET 0.000000 0.000000 0.000000
		CHANNELS 3 Zrotation Yrotation Xrotation
		JOINT RightUpLeg
		{
			OFFSET -1.800000 -1.400000 0.085000
			CHANNELS 3 Zrotation Yrotation Xrotation
			JOINT RightLeg
			{
				OFFSET -2.215000 -6.000000 0.000000
				CHANNELS 3 Zrotation Yrotation Xrotation
				JOINT RightFoot
				{
					OFFSET -2.500000 -6.900000 0.000000
					CHANNELS 3 Zrotation Yrotation Xrotation
					JOINT RightToeBase
					{
						OFFSET -0.200000 -0.500000 1.950000
						CHANNELS 3 Zrotation Yrotation Xrotation
						End Site
						{
							OFFSET 0.000000 0.000000 0.000000
						}
					}
				}
			}
		}
	}
	JOINT LowerBack
	{
		OFFSET 0.000000 0.000000 0.000000
		CHANNELS 3 Zrotation Yrotation Xrotation
		JOINT Spine
		{
			OFFSET -0.087000 1.940000 -0.288900
			CHANNELS 3 Zrotation Yrotation Xrotation
			JOINT Spine1
			{
				OFFSET 0.000000 1.950000 0.060000
				CHANNELS 3 Zrotation Yrotation Xrotation
				JOINT Neck
				{
					OFFSET 0.000000 0.000000 0.000000
					CHANNELS 3 Zrotation Yrotation Xrotation
					JOINT Neck1
					{
						OFFSET 0.000000 1.600000 0.340000
						CHANNELS 3 Zrotation Yrotation Xrotation
						JOINT Head
						{
							OFFSET 0.000000 1.667000 -0.240000
							CHANNELS 3 Zrotation Yrotation Xrotation
							End Site
							{
								OFFSET 0.000000 0.000000 0.000000
							}
						}
					}
				}
				JOINT LeftShoulder
				{
					OFFSET 0.000000 0.000000 0.000000
					CHANNELS 3 Zrotation Yrotation Xrotation
					JOINT LeftArm
					{
						OFFSET 2.700000 1.550000 -0.730000
						CHANNELS 3 Zrotation Yrotation Xrotation
						JOINT LeftForeArm
						{
							OFFSET 5.450000 0.000000 0.000000
							CHANNELS 3 Zrotation Yrotation Xrotation
							JOINT LeftHand
							{
								OFFSET 3.450000 0.000000 0.000000
								CHANNELS 3 Zrotation Yrotation Xrotation
								JOINT LeftHandIndex1
								{
									OFFSET 0.750000 0.000000 0.000000
									CHANNELS 3 Zrotation Yrotation Xrotation
									End Site
									{
										OFFSET 0.000000 0.000000 0.000000
									}
								}
							}
						}
					}
				}
				JOINT RightShoulder
				{
					OFFSET 0.000000 0.000000 0.000000
					CHANNELS 3 Zrotation Yrotation Xrotation
					JOINT RightArm
					{
						OFFSET -2.700000 1.550000 -0.730000
						CHANNELS 3 Zrotation Yrotation Xrotation
						JOINT RightForeArm
						{
							OFFSET -5.450000 0.000000 0.000000
							CHANNELS 3 Zrotation Yrotation Xrotation
							JOINT RightHand
							{
								OFFSET -3.450000 0.000000 0.000000
								CHANNELS 3 Zrotation Yrotation Xrotation
								JOINT RightHandIndex1
								{
									OFFSET -0.750000 0.000000 0.000000
									CHANNELS 3 Zrotation Yrotation Xrotation
									End Site
									{
										OFFSET 0.000000 0.000000 0.000000
									}
								}
							}
						}
					}
				}
			}
		}
	}
}
MOTION
Frames: 9
Frame Time: 0.016667
0.313520 19.719260 -1.397820 -2.042611 -10.368550 35.862424 -17.688099 16.395193 7.555568 -0.046272 -14.515641 -51.398825 2.847664 2.354068 31.640824 8.806383 -3.236401 5.947760 9.228550 8.104500 7.138210 15.421700 -5.365163 6.153213 0.136266 10.710053 -54.662561 -10.323236 5.651977 36.847278 -1.553183 -0.824391 7.921962 5.051750 -9.156210 0.422610 4.054573 -19.003503 -13.546515 13.370889 -26.329340 13.709500 -12.522483 25.029484 -72.320909 21.931626 5.758368 -58.714261 -20.870448 43.279767 116.773482 7.438920 7.007230 -9.688310 42.489929 36.086610 14.244481 -36.529010 35.944502 -1.997313 24.484234 -64.745815 4.858129 0.630669 4.174555 -1.587710 -1.196620 3.802370 1.560310 -50.767834 -1.555545 37.158879 91.397162 12.918791 -1.236862 -42.146720 57.493713 -0.676503 4.192014 -9.645631 5.574110 -6.128940 -9.824890 -1.308850 
0.322350 19.696370 -1.351380 -2.684044 -9.439008 37.624562 -17.479364 15.829638 7.665146 0.749470 -14.588089 -52.951598 2.873889 2.303228 31.243357 8.783952 -3.454044 5.885105 9.501980 8.348600 7.416410 15.636489 -5.603676 6.289519 1.209041 11.057450 -55.828226 -11.215689 5.851778 35.628275 -1.671402 -0.617612 7.943017 5.217710 -9.378940 0.428510 3.437084 -17.285564 -13.842738 13.565576 -23.480643 10.429436 -11.507229 24.657276 -70.540690 19.490556 3.850300 -60.172750 -24.994450 38.231197 113.033420 8.455330 10.787510 -3.977640 45.033254 32.602017 16.354186 -40.045793 33.935386 -4.206609 16.668093 -64.910541 7.993837 0.876301 4.477993 -1.535310 -1.241210 3.986140 1.595550 -50.665498 -4.477932 35.032438 87.227678 6.803711 -3.442939 -40.203403 58.146569 -1.021350 4.367257 -9.760573 5.685440 -6.202350 -9.993120 -1.390520 
0.365300 19.670130 -1.291550 -2.813132 -8.327516 39.609507 -17.081011 14.954356 7.905268 -0.069195 -15.500676 -54.328606 5.005473 1.213021 30.864083 8.650975 -3.847035 5.784047 9.898000 8.688700 7.803940 16.028164 -6.041565 6.490739 -0.948856 11.009432 -57.881290 -7.957568 4.418334 35.894080 -1.877974 -0.600016 7.795986 5.510980 -9.767310 0.527020 2.333952 -14.416101 -14.330464 13.002178 -20.750851 6.100377 -12.036353 22.979570 -69.792734 15.579325 1.262828 -61.511863 -25.398649 29.444486 113.114250 9.925800 15.081370 1.575880 47.962300 28.235539 18.627354 -41.821338 29.806536 -7.471040 4.506858 -64.809650 12.067135 1.384763 5.048547 -1.391390 -1.308570 4.326750 1.657320 -49.879369 -7.493849 31.455135 84.591483 -2.029502 -7.837030 -37.792121 57.497390 -2.040531 4.256286 -9.858449 5.823410 -6.376900 -10.253290 -1.511650 
0.378630 19.657190 -1.260430 -2.631246 -7.454876 40.300266 -16.837183 14.575352 8.043527 -0.052887 -15.889589 -54.632690 5.130394 0.935959 30.239641 8.547045 -4.075554 5.717895 10.128070 8.880430 8.035300 16.231952 -6.341399 6.607346 -2.187861 10.896467 -58.477803 -6.306917 3.751883 35.914678 -2.012970 -0.571878 7.714270 5.672230 -9.998160 0.569940 1.708252 -12.907836 -14.667005 12.336667 -20.070167 3.955068 -12.228883 21.898228 -69.384378 13.168561 0.018245 -62.135582 -23.596097 23.548108 115.488498 9.362220 18.599500 3.559900 49.785369 26.757881 19.909778 -41.356288 27.357687 -9.916256 -4.339654 -64.111359 14.325393 1.898745 5.486148 -1.290540 -1.372100 4.531960 1.685270 -49.600915 -9.420652 29.949201 84.235812 -5.254462 -10.645115 -39.012286 55.518786 -3.982179 4.449814 -9.795484 5.903520 -6.445300 -10.382870 -1.593340 
0.355880 19.649920 -1.234750 -2.528178 -7.188318 40.944154 -16.639598 14.227702 8.012371 1.065501 -15.545337 -54.988688 2.731817 1.717394 29.869420 8.498494 -4.093980 5.633559 10.342670 9.037570 8.287400 16.417773 -6.570556 6.725547 -1.352073 11.425550 -58.978696 -8.403825 4.547951 35.388455 -2.111299 -0.487305 7.674334 5.788880 -10.174870 0.607520 1.185570 -11.614581 -14.880005 11.527301 -18.651180 2.407278 -12.286274 19.900355 -69.195542 11.648253 -0.865855 -62.181687 -21.311566 18.871079 116.695612 9.111820 20.564200 5.590990 50.317839 25.980133 20.588663 -39.535567 26.087962 -11.093567 -9.228622 -64.104799 15.349664 2.300762 5.761634 -1.226420 -1.414520 4.686530 1.682130 -49.473552 -10.775505 29.049158 83.905780 -7.960225 -12.712798 -39.593613 54.542805 -5.169067 4.458850 -9.776141 5.981320 -6.512370 -10.513030 -1.642750 
0.333350 19.652620 -1.202720 -2.775616 -6.552601 41.268784 -16.495661 14.113647 8.016894 3.429763 -15.025830 -54.982772 -0.938646 2.704627 28.822961 8.410452 -4.028277 5.549396 10.451850 9.104140 8.454800 16.509888 -6.745445 6.823946 -1.016612 11.901905 -58.556751 -8.496100 4.757964 34.488280 -2.114395 -0.269883 7.714904 5.859400 -10.295290 0.573170 0.861793 -10.903700 -15.107568 11.312547 -17.786765 1.206237 -11.959628 18.997420 -68.609326 10.858172 -1.163627 -62.722791 -20.698206 17.154281 117.189241 9.537030 20.805540 7.401790 50.579560 25.419713 21.086623 -39.702267 25.055379 -12.806586 -8.741106 -63.926916 14.132016 2.468181 5.816123 -1.176220 -1.450130 4.753290 1.626810 -49.571904 -11.998411 28.362980 82.649276 -10.511992 -13.888865 -40.342532 54.707875 -5.874147 4.416373 -9.674103 6.003410 -6.519220 -10.561030 -1.715110 
0.300110 19.651820 -1.179430 -2.786095 -6.043644 41.349984 -16.350533 13.891508 7.971704 5.380521 -14.485472 -54.695930 -4.153090 3.600003 27.865873 8.373863 -3.893136 5.481203 10.536130 9.120120 8.630680 16.621312 -7.005411 6.871254 0.191654 12.318005 -58.102298 -10.468691 5.499920 33.557381 -2.100990 -0.138356 7.750981 5.858050 -10.361460 0.549300 0.514542 -9.895683 -15.267568 10.364632 -17.042226 0.219334 -11.551911 17.831892 -68.057416 10.090664 -1.360160 -63.149238 -19.883270 15.869238 118.169273 9.884150 20.377570 8.472520 50.473778 24.511199 21.452335 -39.542349 24.267927 -13.799692 -8.146595 -64.183803 13.146874 2.552909 5.794024 -1.147080 -1.469520 4.769200 1.538380 -49.641936 -12.478357 28.137589 81.748516 -13.534635 -15.164730 -40.819390 55.629441 -6.165210 4.362809 -9.567828 6.024897 -6.530630 -10.594770 -1.762930 
0.270570 19.662100 -1.151310 -3.119016 -6.261822 41.178555 -16.304555 14.046932 7.874469 6.041380 -13.656086 -53.828079 -5.624315 3.988369 26.375436 8.342727 -3.950300 5.520545 10.597700 9.096020 8.800150 16.613460 -7.112730 6.866114 2.547748 12.567260 -56.828722 -13.806056 6.578670 30.972408 -2.062969 0.208171 7.895555 5.827290 -10.350730 0.463090 0.469935 -9.916114 -15.349214 10.623813 -16.198087 -0.343307 -11.316994 17.365753 -67.716191 10.299363 -1.216132 -63.601344 -21.346416 17.409144 118.185970 10.321390 20.316010 9.570990 50.279968 24.127869 21.461732 -39.256614 24.621232 -14.097938 -4.586765 -64.091638 11.509663 2.398203 5.588212 -1.131640 -1.497830 4.732470 1.462660 -49.932171 -12.642263 28.230637 80.883881 -14.800946 -15.484561 -40.083196 56.407772 -5.964110 4.324166 -9.507113 6.015390 -6.444240 -10.601760 -1.819090 
0.292720 19.658140 -1.133340 -3.209238 -6.411228 41.012488 -16.395016 14.389036 7.894468 4.655690 -13.735159 -53.644442 -3.624298 3.549113 26.466487 8.245989 -4.121636 5.667414 10.604140 9.007230 8.925710 16.503034 -6.937532 6.842446 2.238348 12.327766 -56.509257 -13.417297 6.466121 31.252083 -2.033118 0.326656 8.006296 5.778710 -10.238350 0.285890 0.724387 -10.953908 -15.318097 12.060597 -15.868886 -0.378896 -11.026463 18.290102 -67.381984 11.565975 -0.344485 -63.901824 -25.775285 22.281566 116.378277 10.718550 20.207420 9.853600 49.895277 24.364710 21.366860 -39.914045 25.809153 -14.868705 -2.033299 -63.467913 10.022941 2.201716 5.224795 -1.096670 -1.528670 4.617320 1.391980 -50.339869 -13.075759 28.508531 79.700893 -14.208593 -14.784115 -42.246988 56.459229 -6.200364 5.146177 -9.345879 5.926140 -6.229160 -10.561880 -1.899780 
